<svg xmlns="http://www.w3.org/2000/svg" version="1.1" xmlns:xlink="http://www.w3.org/1999/xlink" xmlns:svgjs="http://svgjs.dev/svgjs" width="1000" height="669" viewBox="0 0 1000 669"><g transform="matrix(1,0,0,1,-0.21136981119553866,0.2708502024291306)"><svg viewBox="0 0 369 247" data-background-color="#ffffff" preserveAspectRatio="xMidYMid meet" height="669" width="1000" xmlns="http://www.w3.org/2000/svg" xmlns:xlink="http://www.w3.org/1999/xlink"><g id="tight-bounds" transform="matrix(1,0,0,1,0.07799549671480577,-0.09999999999999432)"><svg viewBox="0 0 368.84400904295404 247.2" height="247.2" width="368.84400904295404"><g><svg viewBox="0 0 368.84400904295404 247.2" height="247.2" width="368.84400904295404"><g><svg viewBox="0 0 368.84400904295404 247.2" height="247.2" width="368.84400904295404"><g id="textblocktransform"><svg viewBox="0 0 368.84400904295404 247.2" height="247.2" width="368.84400904295404" id="textblock"><g><svg viewBox="0 0 368.84400904295404 247.2" height="247.2" width="368.84400904295404"><g transform="matrix(1,0,0,1,0,0)"><svg width="368.84400904295404" viewBox="-0.6299999952316284 -32.400001525878906 48.34000015258789 32.400001525878906" height="247.2" data-palette-color="#38b5ee"><path d="M10.11-32.4L14.87-14.6 18.12-28.2 22.34-12.82 18.85 0 9.06 0-0.63-32.4 10.11-32.4ZM29.47-32.4L37.77 0 27.47 0 18.58-32.4 29.47-32.4ZM34.52-18.95L37.87-32.4 47.71-32.4 38.92-1.68 34.52-18.95Z" opacity="1" transform="matrix(1,0,0,1,0,0)" fill="#38b5ee" class="undefined-text-0" data-fill-palette-color="primary" id="text-0"></path></svg></g></svg></g></svg></g></svg></g></svg></g><defs></defs></svg><rect width="368.84400904295404" height="247.2" fill="none" stroke="none" visibility="hidden"></rect></g></svg></g></svg>