<svg width="37" height="32" viewBox="0 0 37 32" fill="none" xmlns="http://www.w3.org/2000/svg">
<path d="M21.5563 8.42143L21.973 8.32469L20.9026 5.48438L20.5732 5.5712C20.0393 5.71259 19.5228 5.89864 19.0312 6.12189C19.5752 6.96034 19.9345 7.92779 20.0567 8.96469C20.5258 8.73151 21.0273 8.54546 21.5563 8.42143Z" fill="#705EF9"/>
<path d="M16.3277 14.9794C16.3277 12.3772 17.8023 10.0851 20.0554 8.96388C19.9331 7.92699 19.5738 6.95954 19.0299 6.12109C15.5941 7.68388 13.3086 11.127 13.3086 14.9794V19.6603H16.3277V14.9794Z" fill="#3DEAAC"/>
<path d="M20.9009 5.48344L21.9713 8.32375L21.5546 8.42049C21.0231 8.54452 20.5241 8.73057 20.055 8.96375C20.085 9.22173 20.1024 9.48468 20.1024 9.75259V19.4741H23.1215V9.75259C23.1215 9.2391 23.0816 8.73553 23.0043 8.24189C23.0392 8.24189 23.0716 8.23941 23.1066 8.23941C26.8443 8.23941 29.8858 11.2633 29.8858 14.9793V19.5312H32.9049V14.9793C32.9049 9.60871 28.511 5.24034 23.1091 5.24034C22.7498 5.24034 22.393 5.26514 22.0387 5.30235C20.4044 2.16437 17.1133 0.0136719 13.3257 0.0136719C7.92126 0.0136719 3.52734 4.38204 3.52734 9.75259V19.4741H6.54644V9.75259C6.54644 6.03662 9.588 3.01274 13.3257 3.01274C15.7185 3.01274 17.8244 4.25305 19.0295 6.11848C19.5211 5.89522 20.0351 5.70918 20.5715 5.56778L20.9009 5.48096V5.48344Z" fill="#705EF9"/>
<path d="M5.67978 22.9121C4.85389 22.9171 4.37483 23.2718 4.11284 23.5992C3.85585 23.1552 3.41171 22.9245 2.82536 22.927C2.3438 22.927 1.98949 23.0758 1.71752 23.3809L1.72251 23.0163L0.0507812 23.0237L0.0757325 27.8808L1.74497 27.8734L1.73 25.1596C1.7275 24.6609 1.96454 24.3856 2.39869 24.3831C2.83284 24.3806 3.01748 24.5989 3.01998 25.162L3.03245 27.8684L4.71167 27.8609L4.6967 25.1471C4.69421 24.6411 4.92875 24.3732 5.37538 24.3707C5.822 24.3682 6.00165 24.6113 6.00664 25.2613L6.01912 27.8535L7.68835 27.8461L7.67588 25.234C7.66839 23.7754 6.91986 22.9071 5.67479 22.9146L5.67978 22.9121Z" fill="#705EF9"/>
<path d="M12.585 25.7728C12.0985 26.3607 11.7067 26.4426 11.3549 26.445C10.7037 26.4475 10.282 26.0332 10.2795 25.3858C10.277 24.7384 10.6937 24.3191 11.3449 24.3167C11.6967 24.3167 12.091 24.3936 12.5825 24.9765L12.6149 25.0162L13.8051 24.1281L13.7677 24.0835C13.0366 23.2376 12.2756 22.8779 11.2227 22.8829C9.65323 22.8903 8.56287 23.9322 8.57035 25.4131C8.57784 26.8965 9.67819 27.926 11.2476 27.916C12.2856 27.9111 13.0691 27.534 13.7877 26.6906L13.8251 26.646L12.6174 25.7306L12.585 25.7703V25.7728Z" fill="#705EF9"/>
<path d="M17.704 22.8887C17.19 22.8912 16.706 23.0723 16.3866 23.3774V22.9408L14.7148 22.9483L14.7398 27.8053L16.409 27.7979L16.3966 25.3272C16.3941 24.65 16.6985 24.3176 17.3297 24.3151C17.8886 24.3126 18.1182 24.6227 18.1207 25.3842L18.1332 27.7879L19.8498 27.7805L19.8373 25.3297C19.8298 23.7024 19.1113 22.8813 17.704 22.8887Z" fill="#705EF9"/>
<path d="M23.3689 22.8209C21.8294 22.8283 20.7191 23.89 20.7266 25.3412C20.7341 26.8519 21.822 27.8615 23.4313 27.854C24.4269 27.8491 25.3052 27.4646 25.7767 26.8246L25.8142 26.775L24.5192 26.0432L24.4892 26.0729C24.1898 26.383 23.8804 26.5095 23.4238 26.512C22.9672 26.5145 22.568 26.254 22.4682 25.8745L26.0412 25.8671L26.0462 25.8199C26.1485 24.974 25.9364 24.2075 25.4449 23.6593C24.9558 23.1136 24.2173 22.8159 23.3664 22.8184L23.3689 22.8209ZM24.377 24.7235L22.4657 24.7334C22.578 24.3415 22.9448 24.0785 23.4039 24.076C23.8979 24.076 24.2547 24.3142 24.377 24.7235Z" fill="#705EF9"/>
<path d="M28.6284 21.4492L26.9492 21.4864L26.9567 22.8979H26.9517L26.9592 24.3267H26.9642L26.9692 25.3314C26.9742 26.2839 27.1987 26.9413 27.6553 27.3432C28.0296 27.6706 28.5636 27.8294 29.2772 27.8244C29.4917 27.8244 29.7238 27.807 29.9733 27.7773L30.0207 27.7723L30.0132 26.2517L29.9509 26.2591C29.3969 26.3261 29.0526 26.2815 28.8655 26.1177C28.6858 25.959 28.6459 25.6861 28.6459 25.3239L28.6409 24.3168L30.0032 24.3094L29.9958 22.883L28.6334 22.8905L28.6259 21.4517L28.6284 21.4492Z" fill="#705EF9"/>
<path d="M33.5893 22.7793C31.9675 22.7868 30.7972 23.8435 30.8047 25.2922C30.8122 26.7632 31.9625 27.7852 33.6043 27.7778C35.246 27.7703 36.3863 26.7359 36.3788 25.2649C36.3713 23.8162 35.1986 22.7719 33.5893 22.7793ZM34.6821 25.2525C34.6846 25.895 34.2505 26.3291 33.5993 26.3316C32.963 26.3341 32.5164 25.895 32.5139 25.2624C32.5114 24.5703 33.0553 24.2057 33.5968 24.2032C34.3054 24.2007 34.6796 24.7291 34.6821 25.2525Z" fill="#705EF9"/>
<path d="M11.8477 24.4017C12.0697 24.4885 12.3117 24.6547 12.5812 24.9772L12.6137 25.0169L13.8038 24.1288L13.7664 24.0842C13.4919 23.7667 13.2125 23.5161 12.9156 23.3301L11.8477 24.4042V24.4017Z" fill="#3DEAAC"/>
<path d="M13.7893 26.6924L13.8267 26.6478L12.6191 25.7324L12.5867 25.7721C12.3421 26.0673 12.1226 26.2335 11.918 26.3278L13.0083 27.4019C13.2803 27.2183 13.5398 26.9827 13.7893 26.6899V26.6924Z" fill="#3DEAAC"/>
<path d="M0.730076 31.2846C0.606318 31.2846 0.490544 31.2697 0.382755 31.24C0.274965 31.2102 0.185141 31.1675 0.113281 31.112L0.209094 30.8679C0.28295 30.9175 0.365788 30.9562 0.457608 30.984C0.549429 31.0098 0.641249 31.0227 0.73307 31.0227C0.828883 31.0227 0.899744 31.0068 0.945655 30.975C0.993561 30.9413 1.01751 30.8976 1.01751 30.8441C1.01751 30.7607 0.955635 30.7071 0.831877 30.6833L0.532462 30.6268C0.278957 30.5791 0.152205 30.4482 0.152205 30.2338C0.152205 30.1386 0.178154 30.0562 0.230053 29.9868C0.283948 29.9173 0.357803 29.8637 0.45162 29.826C0.545437 29.7883 0.653226 29.7695 0.774988 29.7695C0.878785 29.7695 0.97859 29.7843 1.0744 29.8141C1.17022 29.8419 1.25206 29.8846 1.31992 29.9421L1.21812 30.1862C1.16024 30.1386 1.09037 30.1009 1.00853 30.0731C0.928688 30.0453 0.851838 30.0314 0.777982 30.0314C0.680173 30.0314 0.607316 30.0483 0.559409 30.082C0.513499 30.1158 0.490544 30.1604 0.490544 30.216C0.490544 30.3033 0.547433 30.3569 0.66121 30.3767L0.960625 30.4333C1.09037 30.4571 1.18818 30.5007 1.25405 30.5643C1.32192 30.6278 1.35585 30.7131 1.35585 30.8203C1.35585 30.9651 1.29896 31.0792 1.18519 31.1626C1.07141 31.2439 0.919705 31.2846 0.730076 31.2846Z" fill="#372E7E"/>
<path d="M5.50658 31.2846C5.40079 31.2846 5.30598 31.2648 5.22214 31.2251C5.1403 31.1834 5.07543 31.1278 5.02752 31.0584C4.98161 30.9889 4.95866 30.9105 4.95866 30.8232C4.95866 30.7161 4.9866 30.6317 5.04249 30.5702C5.09838 30.5067 5.1892 30.4611 5.31496 30.4333C5.44071 30.4055 5.60938 30.3916 5.82097 30.3916H5.92577V30.3291C5.92577 30.2299 5.90381 30.1584 5.85989 30.1148C5.81598 30.0711 5.74212 30.0493 5.63833 30.0493C5.55649 30.0493 5.47265 30.0622 5.38682 30.088C5.30099 30.1118 5.21416 30.1495 5.12633 30.2011L5.01854 29.9481C5.07044 29.9123 5.13132 29.8816 5.20118 29.8558C5.27304 29.828 5.34789 29.8072 5.42574 29.7933C5.50559 29.7774 5.58044 29.7695 5.6503 29.7695C5.86389 29.7695 6.02258 29.8191 6.12637 29.9183C6.23017 30.0155 6.28207 30.1674 6.28207 30.3737V31.2549H5.93175V31.0227C5.89782 31.104 5.84392 31.1685 5.77007 31.2162C5.69621 31.2618 5.60839 31.2846 5.50658 31.2846ZM5.58443 31.0286C5.68224 31.0286 5.76308 30.9949 5.82696 30.9274C5.89283 30.8599 5.92577 30.7746 5.92577 30.6714V30.6059H5.82396C5.63633 30.6059 5.50559 30.6208 5.43173 30.6506C5.35987 30.6784 5.32394 30.73 5.32394 30.8054C5.32394 30.8709 5.3469 30.9244 5.39281 30.9661C5.43872 31.0078 5.50259 31.0286 5.58443 31.0286Z" fill="#372E7E"/>
<path d="M10.5394 31.2846C10.3657 31.2846 10.237 31.238 10.1531 31.1447C10.0713 31.0495 10.0304 30.9105 10.0304 30.728V29.1562H10.4046V30.7101C10.4046 30.8887 10.4805 30.978 10.6322 30.978C10.6541 30.978 10.6761 30.977 10.6981 30.975C10.72 30.9731 10.741 30.9691 10.7609 30.9631L10.755 31.2578C10.6831 31.2757 10.6112 31.2846 10.5394 31.2846Z" fill="#372E7E"/>
<path d="M15.0619 31.2846C14.8962 31.2846 14.7535 31.2539 14.6337 31.1923C14.514 31.1308 14.4211 31.0435 14.3553 30.9304C14.2914 30.8173 14.2595 30.6833 14.2595 30.5285C14.2595 30.3777 14.2904 30.2457 14.3523 30.1326C14.4162 30.0195 14.503 29.9312 14.6128 29.8677C14.7246 29.8022 14.8513 29.7695 14.993 29.7695C15.2006 29.7695 15.3643 29.8349 15.4841 29.9659C15.6058 30.0969 15.6667 30.2755 15.6667 30.5017V30.6119H14.6188C14.6467 30.8718 14.7964 31.0018 15.0679 31.0018C15.1497 31.0018 15.2316 30.9899 15.3134 30.9661C15.3952 30.9403 15.4701 30.9006 15.538 30.847L15.6428 31.0971C15.5729 31.1546 15.4851 31.2003 15.3793 31.234C15.2735 31.2678 15.1677 31.2846 15.0619 31.2846ZM15.008 30.0225C14.8982 30.0225 14.8094 30.0562 14.7415 30.1237C14.6737 30.1912 14.6327 30.2825 14.6188 30.3976H15.3553C15.3473 30.2765 15.3134 30.1842 15.2535 30.1207C15.1956 30.0552 15.1138 30.0225 15.008 30.0225Z" fill="#372E7E"/>
<path d="M19.3315 31.7907V29.7992H19.6968V30.0314C19.7387 29.952 19.8016 29.8885 19.8854 29.8409C19.9713 29.7933 20.0681 29.7695 20.1759 29.7695C20.3036 29.7695 20.4154 29.8002 20.5112 29.8617C20.609 29.9233 20.6849 30.0106 20.7388 30.1237C20.7927 30.2348 20.8196 30.3688 20.8196 30.5256C20.8196 30.6803 20.7927 30.8153 20.7388 30.9304C20.6849 31.0435 20.61 31.1308 20.5142 31.1923C20.4184 31.2539 20.3056 31.2846 20.1759 31.2846C20.0721 31.2846 19.9783 31.2628 19.8944 31.2191C19.8126 31.1735 19.7497 31.113 19.7058 31.0376V31.7907H19.3315ZM20.0711 31.0018C20.1829 31.0018 20.2727 30.9621 20.3406 30.8828C20.4084 30.8014 20.4424 30.6823 20.4424 30.5256C20.4424 30.3668 20.4084 30.2487 20.3406 30.1713C20.2727 30.0919 20.1829 30.0523 20.0711 30.0523C19.9593 30.0523 19.8695 30.0919 19.8016 30.1713C19.7337 30.2487 19.6998 30.3668 19.6998 30.5256C19.6998 30.6823 19.7337 30.8014 19.8016 30.8828C19.8695 30.9621 19.9593 31.0018 20.0711 31.0018Z" fill="#372E7E"/>
<path d="M24.9773 31.2846C24.8715 31.2846 24.7767 31.2648 24.6929 31.2251C24.611 31.1834 24.5462 31.1278 24.4983 31.0584C24.4523 30.9889 24.4294 30.9105 24.4294 30.8232C24.4294 30.7161 24.4573 30.6317 24.5132 30.5702C24.5691 30.5067 24.6599 30.4611 24.7857 30.4333C24.9114 30.4055 25.0801 30.3916 25.2917 30.3916H25.3965V30.3291C25.3965 30.2299 25.3745 30.1584 25.3306 30.1148C25.2867 30.0711 25.2129 30.0493 25.1091 30.0493C25.0272 30.0493 24.9434 30.0622 24.8576 30.088C24.7717 30.1118 24.6849 30.1495 24.5971 30.2011L24.4893 29.9481C24.5412 29.9123 24.6021 29.8816 24.6719 29.8558C24.7438 29.828 24.8186 29.8072 24.8965 29.7933C24.9763 29.7774 25.0512 29.7695 25.121 29.7695C25.3346 29.7695 25.4933 29.8191 25.5971 29.9183C25.7009 30.0155 25.7528 30.1674 25.7528 30.3737V31.2549H25.4025V31.0227C25.3686 31.104 25.3147 31.1685 25.2408 31.2162C25.1669 31.2618 25.0791 31.2846 24.9773 31.2846ZM25.0552 31.0286C25.153 31.0286 25.2338 30.9949 25.2977 30.9274C25.3636 30.8599 25.3965 30.7746 25.3965 30.6714V30.6059H25.2947C25.1071 30.6059 24.9763 30.6208 24.9025 30.6506C24.8306 30.6784 24.7947 30.73 24.7947 30.8054C24.7947 30.8709 24.8176 30.9244 24.8635 30.9661C24.9095 31.0078 24.9733 31.0286 25.0552 31.0286Z" fill="#372E7E"/>
<path d="M30.1838 31.8204C30.048 31.8204 29.9203 31.8046 29.8005 31.7728C29.6827 31.743 29.579 31.6964 29.4891 31.6329L29.5969 31.3739C29.6808 31.4295 29.7706 31.4702 29.8664 31.496C29.9622 31.5238 30.058 31.5376 30.1538 31.5376C30.4213 31.5376 30.555 31.4096 30.555 31.1536V30.9542C30.5131 31.0356 30.4483 31.1001 30.3604 31.1477C30.2746 31.1953 30.1788 31.2191 30.073 31.2191C29.9412 31.2191 29.8265 31.1894 29.7287 31.1298C29.6308 31.0683 29.555 30.983 29.5011 30.8738C29.4472 30.7647 29.4203 30.6377 29.4203 30.4928C29.4203 30.3479 29.4472 30.2219 29.5011 30.1148C29.555 30.0056 29.6308 29.9213 29.7287 29.8617C29.8265 29.8002 29.9412 29.7695 30.073 29.7695C30.1828 29.7695 30.2806 29.7943 30.3664 29.8439C30.4522 29.8915 30.5151 29.956 30.555 30.0374V29.7992H30.9203V31.109C30.9203 31.3451 30.8575 31.5228 30.7317 31.6418C30.6059 31.7609 30.4233 31.8204 30.1838 31.8204ZM30.1748 30.9363C30.2906 30.9363 30.3824 30.8967 30.4502 30.8173C30.5181 30.7379 30.552 30.6297 30.552 30.4928C30.552 30.3559 30.5181 30.2487 30.4502 30.1713C30.3824 30.0919 30.2906 30.0523 30.1748 30.0523C30.059 30.0523 29.9672 30.0919 29.8993 30.1713C29.8315 30.2487 29.7975 30.3559 29.7975 30.4928C29.7975 30.6297 29.8315 30.7379 29.8993 30.8173C29.9672 30.8967 30.059 30.9363 30.1748 30.9363Z" fill="#372E7E"/>
<path d="M35.3981 31.2846C35.2324 31.2846 35.0897 31.2539 34.97 31.1923C34.8502 31.1308 34.7574 31.0435 34.6915 30.9304C34.6276 30.8173 34.5957 30.6833 34.5957 30.5285C34.5957 30.3777 34.6266 30.2457 34.6885 30.1326C34.7524 30.0195 34.8392 29.9312 34.949 29.8677C35.0608 29.8022 35.1875 29.7695 35.3293 29.7695C35.5369 29.7695 35.7005 29.8349 35.8203 29.9659C35.9421 30.0969 36.0029 30.2755 36.0029 30.5017V30.6119H34.955C34.9829 30.8718 35.1326 31.0018 35.4041 31.0018C35.486 31.0018 35.5678 30.9899 35.6496 30.9661C35.7315 30.9403 35.8063 30.9006 35.8742 30.847L35.979 31.0971C35.9091 31.1546 35.8213 31.2003 35.7155 31.234C35.6097 31.2678 35.5039 31.2846 35.3981 31.2846ZM35.3442 30.0225C35.2344 30.0225 35.1456 30.0562 35.0778 30.1237C35.0099 30.1912 34.969 30.2825 34.955 30.3976H35.6916C35.6836 30.2765 35.6496 30.1842 35.5898 30.1207C35.5319 30.0552 35.45 30.0225 35.3442 30.0225Z" fill="#372E7E"/>
</svg>
